# xmcd
#
# Track frame offsets: 
#        150
#        12266
#        31514
#        40306
#        54986
#        84035
#        97512
#        107015
#        128145
#        145989
#
# Disc length: 2256 seconds
#
# Revision: 0
# Processed by: cddbd v1.5.2PL0 Copyright (c) Steve Scherf et al.
# Submitted via: ExactAudioCopy v0.95b3
#
DISCID=6708ce0a
DTITLE=Cream  - Fresh Cream (1966) [UK Reaction Mono]  FLAC
DYEAR=1900
DGENRE=
TTITLE0=N.S.U.
TTITLE1=Sleepy Time Time
TTITLE2=Dreaming
TTITLE3=Sweet Wine
TTITLE4=Spoonful
TTITLE5=Cat's Squirrel
TTITLE6=Four Until Late
TTITLE7=Rollin' and Tumblin'
TTITLE8=I'm So Glad
TTITLE9=Toad
EXTD=
EXTT0=
EXTT1=
EXTT2=
EXTT3=
EXTT4=
EXTT5=
EXTT6=
EXTT7=
EXTT8=
EXTT9=
PLAYORDER=
